<svg width="27" height="25" viewBox="0 0 27 25" fill="none" xmlns="http://www.w3.org/2000/svg">
<path d="M27 15.3302V25H21.1883V15.9198C21.1883 13.6792 20.3408 12.1462 18.2825 12.1462C16.7085 12.1462 15.7399 13.2075 15.3767 14.1509C15.2556 14.5047 15.1345 14.9764 15.1345 15.566V25H9.32287C9.32287 25 9.44394 9.66981 9.32287 8.1368H15.1345V10.4953C15.861 9.31604 17.3139 7.6651 20.3408 7.6651C24.0942 7.6651 27 10.1415 27 15.3302ZM3.26906 0C1.33184 0 0 1.29717 0 2.94811C0 4.59906 1.21076 5.89623 3.14798 5.89623C5.20628 5.89623 6.41704 4.59906 6.41704 2.94811C6.53812 1.17925 5.32735 0 3.26906 0ZM0.363228 25H6.17489V8.1368H0.363228V25Z" fill="black"/>
</svg>
