<svg width="30" height="36" viewBox="0 0 30 36" fill="none" xmlns="http://www.w3.org/2000/svg">
<path d="M1 13V12H0V13H1ZM1 35H0V36H1V35ZM29 35V36H30V35H29ZM29 13H30V12H29V13ZM15.7071 0.292893C15.3166 -0.0976311 14.6834 -0.0976311 14.2929 0.292893L7.92893 6.65685C7.53841 7.04738 7.53841 7.68054 7.92893 8.07107C8.31946 8.46159 8.95262 8.46159 9.34315 8.07107L15 2.41421L20.6569 8.07107C21.0474 8.46159 21.6805 8.46159 22.0711 8.07107C22.4616 7.68054 22.4616 7.04738 22.0711 6.65685L15.7071 0.292893ZM10.1303 12H1V14H10.1303V12ZM0 13V35H2V13H0ZM1 36H29V34H1V36ZM30 35V13H28V35H30ZM29 12H19.8697V14H29V12ZM16 24V1H14V24H16Z" fill="black"/>
</svg>
