<svg width="259" height="152" viewBox="0 0 259 152" fill="none" xmlns="http://www.w3.org/2000/svg">
<path d="M243.038 92.9132V150.403H230.175V92.9132H214.213V82.5801H259V92.9132H243.038Z" fill="black"/>
<path d="M207.6 103.998H195.3V103.246C195.3 94.98 192.296 91.6922 187.225 91.6922C183.564 91.6922 180.371 93.6649 180.371 97.4224C180.371 101.462 181.967 103.34 184.69 105.125L197.835 113.861C204.971 118.652 209.384 122.785 209.384 132.931C209.384 144.861 202.06 152 188.54 152C174.174 152 166.851 143.639 166.851 129.737V127.107H179.151V129.737C179.151 139.224 183.657 141.667 188.54 141.667C193.422 141.667 196.145 138.285 196.145 134.058C196.145 129.643 193.892 127.013 189.103 123.913L177.648 116.398C170.888 111.983 167.508 106.252 167.508 98.9254C167.508 87.7469 175.77 81.3591 187.507 81.3591C200.37 81.3591 207.6 88.3105 207.6 101.931V103.998Z" fill="black"/>
<path d="M123.784 82.5801H160.027V92.9132H136.648V108.695H157.961V119.028H136.648V140.07H160.027V150.403H123.784V82.5801Z" fill="black"/>
<path d="M71.252 82.5801H84.8664L94.7252 139.036H94.9129L104.114 82.5801H117.353L104.114 150.403H85.6176L71.252 82.5801Z" fill="black"/>
<path d="M22.2808 82.5801H36.1769L54.9555 131.897H55.0494C53.641 124.288 53.4532 114.331 53.4532 106.628V82.5801H65.4715V150.403H51.5753L32.7968 101.18H32.7029C34.1113 107.755 34.299 119.497 34.299 126.355V150.403H22.2808V82.5801Z" fill="black"/>
<path d="M12.8633 82.5801V150.403H0V82.5801H12.8633Z" fill="black"/>
<path d="M119.772 67.8226L136.954 0H154.231L169.253 67.8226H155.357L152.165 50.1625H137.612L133.574 67.8226H119.772ZM139.208 40.1112H150.569L145.405 8.54829L139.208 40.1112Z" fill="black"/>
<path d="M55.4126 0H75.9751L84.9888 44.0565L94.0026 0H114.565V67.8226H102.547V6.38773H102.453L89.5896 67.8226H80.3881L67.5248 6.48167H67.4309V67.8226H55.4126V0Z" fill="black"/>
<path d="M0.57373 67.8226L17.7561 0H35.0324L50.0552 67.8226H36.1591L32.9668 50.1625H18.4134L14.376 67.8226H0.57373ZM20.0095 40.1112H31.3706L26.2065 8.54829L20.0095 40.1112Z" fill="black"/>
</svg>
